<?xml version="1.0" standalone="no"?>
<!DOCTYPE svg PUBLIC "-//W3C//DTD SVG 20010904//EN"
 "http://www.w3.org/TR/2001/REC-SVG-20010904/DTD/svg10.dtd">
<svg version="1.0" xmlns="http://www.w3.org/2000/svg"
 width="1080.000000pt" height="336.000000pt" viewBox="0 0 1080.000000 336.000000"
 preserveAspectRatio="xMidYMid meet">

<g transform="translate(0.000000,336.000000) scale(0.100000,-0.100000)"
fill="#000000" stroke="none">
<path d="M935 3354 c-208 -30 -325 -82 -436 -193 -52 -52 -85 -96 -107 -141
-40 -85 -48 -113 -127 -480 -20 -91 -48 -217 -62 -280 -14 -63 -31 -142 -38
-175 -7 -33 -29 -134 -49 -225 -99 -443 -106 -480 -106 -557 0 -222 100 -341
322 -387 67 -14 194 -16 981 -16 1005 0 1007 0 1143 65 152 73 240 203 279
415 8 41 50 266 94 498 45 233 81 426 81 428 0 2 -308 4 -685 4 l-684 0 -10
-37 c-5 -21 -24 -96 -41 -168 -17 -71 -42 -176 -55 -231 -14 -56 -25 -104 -25
-108 0 -3 40 -6 89 -6 50 0 92 -3 95 -8 4 -7 -14 -100 -34 -173 -20 -73 -129
-140 -200 -124 -41 9 -77 41 -85 74 -6 30 -1 63 60 356 19 94 48 235 65 315
100 497 100 494 128 534 39 56 85 78 151 73 45 -3 59 -9 79 -32 25 -29 26 -44
10 -160 -3 -20 3 -20 601 -20 l604 0 19 55 c51 149 74 302 58 391 -30 166
-133 254 -345 294 -78 14 -194 17 -915 20 -454 2 -838 1 -855 -1z"/>
<path d="M8415 2545 l-47 -195 -83 0 -83 0 -21 -92 c-11 -51 -24 -112 -27
-135 l-7 -43 88 0 c85 0 87 0 82 -22 -4 -13 -20 -88 -38 -168 -17 -80 -46
-212 -64 -295 -18 -82 -56 -257 -84 -388 -29 -131 -55 -245 -58 -253 -4 -12
44 -14 331 -14 185 0 336 2 336 5 0 8 230 1089 236 1108 5 14 18 17 95 17 83
0 90 2 99 23 9 22 60 231 60 248 0 5 -40 9 -90 9 -90 0 -90 0 -90 26 0 14 7
55 14 92 32 147 48 243 42 257 -5 13 -50 15 -325 15 l-319 0 -47 -195z"/>
<path d="M9441 2717 c-5 -13 -23 -92 -41 -177 -17 -85 -35 -173 -40 -195 -5
-22 -62 -287 -125 -590 -145 -689 -145 -689 -160 -755 -7 -30 -11 -58 -8 -62
2 -5 150 -8 328 -8 300 0 324 1 329 18 3 9 19 80 35 157 17 77 40 183 51 235
11 52 46 212 76 355 31 143 63 272 72 287 30 52 85 61 127 22 25 -23 27 -30
22 -77 -4 -42 -172 -888 -194 -974 l-5 -23 330 0 c306 0 331 1 336 18 6 20 42
188 61 282 13 63 92 435 135 629 50 234 5 386 -135 456 -59 30 -62 30 -215 30
-137 -1 -167 -4 -260 -29 -155 -41 -159 -42 -154 -20 2 11 26 111 53 224 27
112 47 208 45 212 -3 5 -151 8 -330 8 l-324 0 -9 -23z"/>
<path d="M3953 2365 c-67 -15 -92 -25 -140 -62 l-33 -24 0 30 0 31 -257 0
c-142 0 -288 -3 -324 -6 l-66 -7 -36 -171 c-20 -94 -73 -346 -117 -561 -110
-532 -130 -627 -136 -648 -5 -16 14 -17 332 -15 l338 3 27 135 c102 502 141
674 159 711 58 113 162 180 290 187 l79 4 6 42 c4 22 20 108 36 190 16 82 29
155 29 162 0 18 -101 18 -187 -1z"/>
<path d="M4500 2340 c-105 -25 -194 -90 -235 -169 -19 -40 -53 -174 -110 -441
-13 -59 -36 -159 -111 -485 -14 -62 -23 -123 -20 -140 14 -74 71 -126 176
-160 49 -17 104 -19 545 -22 482 -4 490 -4 555 18 73 24 158 76 194 120 46 54
96 227 189 649 105 475 106 486 33 555 -46 45 -88 61 -198 75 -89 11 -969 11
-1018 0z m520 -300 c33 -18 41 -44 30 -97 -5 -26 -34 -178 -65 -338 -30 -159
-60 -307 -66 -327 -19 -70 -104 -110 -157 -72 -31 21 -29 57 13 271 106 547
96 505 131 541 34 34 76 42 114 22z"/>
<path d="M5886 2288 c2 -35 16 -252 30 -483 39 -675 53 -875 59 -885 10 -16
580 -13 592 3 9 10 67 137 244 529 24 53 45 95 47 93 2 -2 5 -142 5 -312 l2
-308 311 -3 310 -2 74 152 c41 84 123 254 183 378 60 124 122 252 137 285 16
33 87 181 159 329 72 147 131 272 131 277 0 5 -136 8 -321 7 l-322 -3 -123
-284 c-68 -156 -126 -286 -129 -289 -3 -3 -5 126 -5 286 l0 292 -244 0 -244 0
-102 -237 c-57 -131 -115 -263 -129 -293 l-26 -55 -3 293 -2 292 -320 0 -319
0 5 -62z"/>
<path d="M4206 543 c-3 -10 -10 -47 -16 -83 -6 -36 -27 -144 -46 -240 -19 -96
-34 -182 -34 -192 0 -17 19 -18 295 -18 l295 0 20 40 c11 21 20 44 20 50 0 6
-75 10 -222 10 -123 0 -228 4 -235 8 -10 6 -8 29 7 102 36 183 60 312 60 326
0 11 -17 14 -69 14 -58 0 -71 -3 -75 -17z"/>
<path d="M654 540 c-36 -14 -62 -58 -78 -130 -21 -93 -20 -114 8 -147 l24 -28
267 -3 266 -4 -6 -41 c-14 -83 11 -77 -330 -77 l-304 0 -7 -46 c-4 -27 -2 -50
4 -56 15 -15 595 -5 647 12 56 17 93 55 110 114 19 63 19 109 0 146 -27 52
-40 55 -310 60 l-250 5 3 34 c2 19 8 45 13 58 l9 23 290 0 c239 0 290 2 290
14 0 7 3 28 6 45 l7 31 -319 -1 c-176 0 -329 -4 -340 -9z"/>
<path d="M1487 413 c-60 -316 -61 -322 -51 -350 18 -52 47 -58 306 -61 231 -3
349 5 402 29 34 16 53 65 81 219 14 74 32 167 40 207 8 40 15 77 15 83 0 6
-28 10 -69 10 -58 0 -71 -3 -75 -17 -3 -10 -21 -106 -42 -213 -20 -107 -38
-198 -41 -202 -7 -12 -461 -10 -468 2 -6 9 9 99 51 307 8 40 14 84 14 98 0 24
-2 25 -68 25 l-68 0 -27 -137z"/>
<path d="M2455 403 c-15 -82 -38 -202 -51 -267 -13 -66 -21 -123 -18 -128 8
-13 122 -10 131 4 4 7 17 56 28 108 l20 95 255 5 c268 5 285 8 315 53 15 24
45 162 45 209 0 17 -10 34 -26 47 -26 20 -38 21 -349 21 l-322 0 -28 -147z
m564 48 c10 -6 12 -22 9 -55 -9 -78 -4 -76 -240 -76 -188 0 -209 2 -204 16 3
9 9 34 12 57 4 23 11 48 17 55 11 14 383 17 406 3z"/>
<path d="M3341 503 c-6 -27 -22 -109 -36 -183 -13 -74 -31 -171 -40 -215 -8
-43 -13 -85 -10 -93 3 -9 22 -12 67 -10 l63 3 16 70 c9 39 20 87 23 108 l7 37
247 0 c279 0 302 5 334 70 22 44 43 177 35 212 -12 45 -36 48 -376 48 l-319 0
-11 -47z m553 -56 c16 -12 16 -18 6 -58 -7 -24 -17 -50 -22 -56 -8 -10 -64
-13 -219 -13 -115 0 -209 1 -209 3 0 12 23 123 27 130 2 4 93 7 202 7 146 0
202 -3 215 -13z"/>
<path d="M4997 478 c-9 -40 -28 -136 -42 -213 -14 -77 -31 -161 -37 -188 -18
-82 -34 -77 284 -77 156 0 288 4 294 8 11 7 54 85 54 97 0 3 -105 5 -234 5
-129 0 -237 3 -239 8 -2 4 1 32 7 62 l11 55 221 3 c161 2 225 6 232 15 6 6 12
28 14 47 l3 35 -224 3 -223 2 7 46 c3 26 9 53 12 60 4 11 51 14 243 14 132 0
241 3 243 8 2 4 7 24 11 45 l7 37 -315 0 -314 0 -15 -72z"/>
<path d="M5805 538 c-2 -7 -8 -40 -14 -73 -5 -33 -26 -145 -46 -249 -20 -103
-34 -194 -31 -202 7 -18 92 -19 103 -1 4 6 24 92 43 189 l35 177 120 -187 120
-187 45 -3 44 -3 189 191 189 191 -6 -48 c-4 -26 -16 -105 -28 -175 -11 -69
-18 -133 -15 -142 5 -11 20 -16 52 -16 38 0 47 4 55 22 5 13 30 127 55 253 25
127 47 240 50 253 5 21 3 22 -66 22 l-72 0 -75 -67 c-220 -197 -354 -313 -363
-313 -5 0 -66 85 -135 190 l-126 190 -59 0 c-39 0 -61 -4 -64 -12z"/>
<path d="M6967 543 c-3 -5 -17 -73 -32 -153 -14 -80 -35 -188 -46 -242 -10
-53 -19 -108 -19 -122 l0 -26 298 0 c163 0 302 4 309 8 6 4 14 21 18 37 4 17
9 38 12 48 4 16 -12 17 -231 17 -129 0 -237 3 -239 8 -3 4 0 33 5 65 l10 57
223 0 c123 0 226 4 229 8 3 5 8 28 12 50 l6 42 -223 2 -224 3 3 34 c2 19 8 45
13 58 l9 23 244 0 c135 0 247 3 249 8 2 4 7 24 11 45 l7 37 -320 0 c-176 0
-322 -3 -324 -7z"/>
<path d="M7752 493 c-6 -32 -20 -110 -32 -173 -12 -63 -30 -155 -40 -205 -21
-106 -16 -117 44 -113 47 3 40 -13 97 238 17 74 34 139 39 144 5 5 108 -61
237 -150 331 -231 336 -234 358 -234 31 0 41 11 53 60 14 54 112 478 112 485
0 3 -26 5 -58 5 l-57 0 -43 -172 c-23 -94 -44 -173 -46 -176 -5 -5 -36 15
-404 255 -135 88 -146 93 -196 93 l-53 0 -11 -57z"/>
<path d="M8765 528 c-3 -13 -6 -34 -8 -48 l-2 -25 148 -3 c126 -2 147 -5 147
-18 0 -9 -16 -99 -35 -201 -47 -248 -49 -233 24 -233 36 0 63 5 67 12 7 10 39
169 76 376 l11 62 147 0 148 0 11 44 c6 25 11 47 11 50 0 3 -166 6 -370 6
l-370 0 -5 -22z"/>
<path d="M9682 530 c-44 -27 -63 -77 -70 -176 -7 -121 -15 -118 311 -122 l259
-3 -7 -52 c-4 -29 -13 -55 -19 -59 -6 -4 -147 -8 -312 -8 l-302 0 -7 -46 c-4
-27 -2 -51 3 -56 13 -13 593 -4 646 10 81 22 132 107 124 207 -5 64 -25 90
-77 105 -20 5 -139 10 -265 10 l-229 0 6 50 c3 28 9 55 12 60 4 6 118 10 296
10 238 0 289 2 289 14 0 7 3 28 6 45 l7 31 -319 0 c-302 0 -321 -1 -352 -20z"/>
</g>
</svg>
